<?xml version="1.0" encoding="UTF-8"?>
<svg xmlns:xlink="http://www.w3.org/1999/xlink" aria-roledescription="timeline" role="graphics-document document" viewBox="0 -61.5 1790 675.3468627929688" style="max-width: 100%;" xmlns="http://www.w3.org/2000/svg" width="100%" id="mermaid-svg-44" height="100%"><style>#mermaid-svg-44{font-family:"trebuchet ms",verdana,arial,sans-serif;font-size:16px;fill:#333;}@keyframes edge-animation-frame{from{stroke-dashoffset:0;}}@keyframes dash{to{stroke-dashoffset:0;}}#mermaid-svg-44 .edge-animation-slow{stroke-dasharray:9,5!important;stroke-dashoffset:900;animation:dash 50s linear infinite;stroke-linecap:round;}#mermaid-svg-44 .edge-animation-fast{stroke-dasharray:9,5!important;stroke-dashoffset:900;animation:dash 20s linear infinite;stroke-linecap:round;}#mermaid-svg-44 .error-icon{fill:#552222;}#mermaid-svg-44 .error-text{fill:#552222;stroke:#552222;}#mermaid-svg-44 .edge-thickness-normal{stroke-width:1px;}#mermaid-svg-44 .edge-thickness-thick{stroke-width:3.5px;}#mermaid-svg-44 .edge-pattern-solid{stroke-dasharray:0;}#mermaid-svg-44 .edge-thickness-invisible{stroke-width:0;fill:none;}#mermaid-svg-44 .edge-pattern-dashed{stroke-dasharray:3;}#mermaid-svg-44 .edge-pattern-dotted{stroke-dasharray:2;}#mermaid-svg-44 .marker{fill:#333333;stroke:#333333;}#mermaid-svg-44 .marker.cross{stroke:#333333;}#mermaid-svg-44 svg{font-family:"trebuchet ms",verdana,arial,sans-serif;font-size:16px;}#mermaid-svg-44 p{margin:0;}#mermaid-svg-44 .edge{stroke-width:3;}#mermaid-svg-44 .section--1 rect,#mermaid-svg-44 .section--1 path,#mermaid-svg-44 .section--1 circle,#mermaid-svg-44 .section--1 path{fill:hsl(240, 100%, 76.2745098039%);}#mermaid-svg-44 .section--1 text{fill:#ffffff;}#mermaid-svg-44 .node-icon--1{font-size:40px;color:#ffffff;}#mermaid-svg-44 .section-edge--1{stroke:hsl(240, 100%, 76.2745098039%);}#mermaid-svg-44 .edge-depth--1{stroke-width:17;}#mermaid-svg-44 .section--1 line{stroke:hsl(60, 100%, 86.2745098039%);stroke-width:3;}#mermaid-svg-44 .lineWrapper line{stroke:#ffffff;}#mermaid-svg-44 .disabled,#mermaid-svg-44 .disabled circle,#mermaid-svg-44 .disabled text{fill:lightgray;}#mermaid-svg-44 .disabled text{fill:#efefef;}#mermaid-svg-44 .section-0 rect,#mermaid-svg-44 .section-0 path,#mermaid-svg-44 .section-0 circle,#mermaid-svg-44 .section-0 path{fill:hsl(60, 100%, 73.5294117647%);}#mermaid-svg-44 .section-0 text{fill:black;}#mermaid-svg-44 .node-icon-0{font-size:40px;color:black;}#mermaid-svg-44 .section-edge-0{stroke:hsl(60, 100%, 73.5294117647%);}#mermaid-svg-44 .edge-depth-0{stroke-width:14;}#mermaid-svg-44 .section-0 line{stroke:hsl(240, 100%, 83.5294117647%);stroke-width:3;}#mermaid-svg-44 .lineWrapper line{stroke:black;}#mermaid-svg-44 .disabled,#mermaid-svg-44 .disabled circle,#mermaid-svg-44 .disabled text{fill:lightgray;}#mermaid-svg-44 .disabled text{fill:#efefef;}#mermaid-svg-44 .section-1 rect,#mermaid-svg-44 .section-1 path,#mermaid-svg-44 .section-1 circle,#mermaid-svg-44 .section-1 path{fill:hsl(80, 100%, 76.2745098039%);}#mermaid-svg-44 .section-1 text{fill:black;}#mermaid-svg-44 .node-icon-1{font-size:40px;color:black;}#mermaid-svg-44 .section-edge-1{stroke:hsl(80, 100%, 76.2745098039%);}#mermaid-svg-44 .edge-depth-1{stroke-width:11;}#mermaid-svg-44 .section-1 line{stroke:hsl(260, 100%, 86.2745098039%);stroke-width:3;}#mermaid-svg-44 .lineWrapper line{stroke:black;}#mermaid-svg-44 .disabled,#mermaid-svg-44 .disabled circle,#mermaid-svg-44 .disabled text{fill:lightgray;}#mermaid-svg-44 .disabled text{fill:#efefef;}#mermaid-svg-44 .section-2 rect,#mermaid-svg-44 .section-2 path,#mermaid-svg-44 .section-2 circle,#mermaid-svg-44 .section-2 path{fill:hsl(270, 100%, 76.2745098039%);}#mermaid-svg-44 .section-2 text{fill:#ffffff;}#mermaid-svg-44 .node-icon-2{font-size:40px;color:#ffffff;}#mermaid-svg-44 .section-edge-2{stroke:hsl(270, 100%, 76.2745098039%);}#mermaid-svg-44 .edge-depth-2{stroke-width:8;}#mermaid-svg-44 .section-2 line{stroke:hsl(90, 100%, 86.2745098039%);stroke-width:3;}#mermaid-svg-44 .lineWrapper line{stroke:#ffffff;}#mermaid-svg-44 .disabled,#mermaid-svg-44 .disabled circle,#mermaid-svg-44 .disabled text{fill:lightgray;}#mermaid-svg-44 .disabled text{fill:#efefef;}#mermaid-svg-44 .section-3 rect,#mermaid-svg-44 .section-3 path,#mermaid-svg-44 .section-3 circle,#mermaid-svg-44 .section-3 path{fill:hsl(300, 100%, 76.2745098039%);}#mermaid-svg-44 .section-3 text{fill:black;}#mermaid-svg-44 .node-icon-3{font-size:40px;color:black;}#mermaid-svg-44 .section-edge-3{stroke:hsl(300, 100%, 76.2745098039%);}#mermaid-svg-44 .edge-depth-3{stroke-width:5;}#mermaid-svg-44 .section-3 line{stroke:hsl(120, 100%, 86.2745098039%);stroke-width:3;}#mermaid-svg-44 .lineWrapper line{stroke:black;}#mermaid-svg-44 .disabled,#mermaid-svg-44 .disabled circle,#mermaid-svg-44 .disabled text{fill:lightgray;}#mermaid-svg-44 .disabled text{fill:#efefef;}#mermaid-svg-44 .section-4 rect,#mermaid-svg-44 .section-4 path,#mermaid-svg-44 .section-4 circle,#mermaid-svg-44 .section-4 path{fill:hsl(330, 100%, 76.2745098039%);}#mermaid-svg-44 .section-4 text{fill:black;}#mermaid-svg-44 .node-icon-4{font-size:40px;color:black;}#mermaid-svg-44 .section-edge-4{stroke:hsl(330, 100%, 76.2745098039%);}#mermaid-svg-44 .edge-depth-4{stroke-width:2;}#mermaid-svg-44 .section-4 line{stroke:hsl(150, 100%, 86.2745098039%);stroke-width:3;}#mermaid-svg-44 .lineWrapper line{stroke:black;}#mermaid-svg-44 .disabled,#mermaid-svg-44 .disabled circle,#mermaid-svg-44 .disabled text{fill:lightgray;}#mermaid-svg-44 .disabled text{fill:#efefef;}#mermaid-svg-44 .section-5 rect,#mermaid-svg-44 .section-5 path,#mermaid-svg-44 .section-5 circle,#mermaid-svg-44 .section-5 path{fill:hsl(0, 100%, 76.2745098039%);}#mermaid-svg-44 .section-5 text{fill:black;}#mermaid-svg-44 .node-icon-5{font-size:40px;color:black;}#mermaid-svg-44 .section-edge-5{stroke:hsl(0, 100%, 76.2745098039%);}#mermaid-svg-44 .edge-depth-5{stroke-width:-1;}#mermaid-svg-44 .section-5 line{stroke:hsl(180, 100%, 86.2745098039%);stroke-width:3;}#mermaid-svg-44 .lineWrapper line{stroke:black;}#mermaid-svg-44 .disabled,#mermaid-svg-44 .disabled circle,#mermaid-svg-44 .disabled text{fill:lightgray;}#mermaid-svg-44 .disabled text{fill:#efefef;}#mermaid-svg-44 .section-6 rect,#mermaid-svg-44 .section-6 path,#mermaid-svg-44 .section-6 circle,#mermaid-svg-44 .section-6 path{fill:hsl(30, 100%, 76.2745098039%);}#mermaid-svg-44 .section-6 text{fill:black;}#mermaid-svg-44 .node-icon-6{font-size:40px;color:black;}#mermaid-svg-44 .section-edge-6{stroke:hsl(30, 100%, 76.2745098039%);}#mermaid-svg-44 .edge-depth-6{stroke-width:-4;}#mermaid-svg-44 .section-6 line{stroke:hsl(210, 100%, 86.2745098039%);stroke-width:3;}#mermaid-svg-44 .lineWrapper line{stroke:black;}#mermaid-svg-44 .disabled,#mermaid-svg-44 .disabled circle,#mermaid-svg-44 .disabled text{fill:lightgray;}#mermaid-svg-44 .disabled text{fill:#efefef;}#mermaid-svg-44 .section-7 rect,#mermaid-svg-44 .section-7 path,#mermaid-svg-44 .section-7 circle,#mermaid-svg-44 .section-7 path{fill:hsl(90, 100%, 76.2745098039%);}#mermaid-svg-44 .section-7 text{fill:black;}#mermaid-svg-44 .node-icon-7{font-size:40px;color:black;}#mermaid-svg-44 .section-edge-7{stroke:hsl(90, 100%, 76.2745098039%);}#mermaid-svg-44 .edge-depth-7{stroke-width:-7;}#mermaid-svg-44 .section-7 line{stroke:hsl(270, 100%, 86.2745098039%);stroke-width:3;}#mermaid-svg-44 .lineWrapper line{stroke:black;}#mermaid-svg-44 .disabled,#mermaid-svg-44 .disabled circle,#mermaid-svg-44 .disabled text{fill:lightgray;}#mermaid-svg-44 .disabled text{fill:#efefef;}#mermaid-svg-44 .section-8 rect,#mermaid-svg-44 .section-8 path,#mermaid-svg-44 .section-8 circle,#mermaid-svg-44 .section-8 path{fill:hsl(150, 100%, 76.2745098039%);}#mermaid-svg-44 .section-8 text{fill:black;}#mermaid-svg-44 .node-icon-8{font-size:40px;color:black;}#mermaid-svg-44 .section-edge-8{stroke:hsl(150, 100%, 76.2745098039%);}#mermaid-svg-44 .edge-depth-8{stroke-width:-10;}#mermaid-svg-44 .section-8 line{stroke:hsl(330, 100%, 86.2745098039%);stroke-width:3;}#mermaid-svg-44 .lineWrapper line{stroke:black;}#mermaid-svg-44 .disabled,#mermaid-svg-44 .disabled circle,#mermaid-svg-44 .disabled text{fill:lightgray;}#mermaid-svg-44 .disabled text{fill:#efefef;}#mermaid-svg-44 .section-9 rect,#mermaid-svg-44 .section-9 path,#mermaid-svg-44 .section-9 circle,#mermaid-svg-44 .section-9 path{fill:hsl(180, 100%, 76.2745098039%);}#mermaid-svg-44 .section-9 text{fill:black;}#mermaid-svg-44 .node-icon-9{font-size:40px;color:black;}#mermaid-svg-44 .section-edge-9{stroke:hsl(180, 100%, 76.2745098039%);}#mermaid-svg-44 .edge-depth-9{stroke-width:-13;}#mermaid-svg-44 .section-9 line{stroke:hsl(0, 100%, 86.2745098039%);stroke-width:3;}#mermaid-svg-44 .lineWrapper line{stroke:black;}#mermaid-svg-44 .disabled,#mermaid-svg-44 .disabled circle,#mermaid-svg-44 .disabled text{fill:lightgray;}#mermaid-svg-44 .disabled text{fill:#efefef;}#mermaid-svg-44 .section-10 rect,#mermaid-svg-44 .section-10 path,#mermaid-svg-44 .section-10 circle,#mermaid-svg-44 .section-10 path{fill:hsl(210, 100%, 76.2745098039%);}#mermaid-svg-44 .section-10 text{fill:black;}#mermaid-svg-44 .node-icon-10{font-size:40px;color:black;}#mermaid-svg-44 .section-edge-10{stroke:hsl(210, 100%, 76.2745098039%);}#mermaid-svg-44 .edge-depth-10{stroke-width:-16;}#mermaid-svg-44 .section-10 line{stroke:hsl(30, 100%, 86.2745098039%);stroke-width:3;}#mermaid-svg-44 .lineWrapper line{stroke:black;}#mermaid-svg-44 .disabled,#mermaid-svg-44 .disabled circle,#mermaid-svg-44 .disabled text{fill:lightgray;}#mermaid-svg-44 .disabled text{fill:#efefef;}#mermaid-svg-44 .section-root rect,#mermaid-svg-44 .section-root path,#mermaid-svg-44 .section-root circle{fill:hsl(240, 100%, 46.2745098039%);}#mermaid-svg-44 .section-root text{fill:#ffffff;}#mermaid-svg-44 .icon-container{height:100%;display:flex;justify-content:center;align-items:center;}#mermaid-svg-44 .edge{fill:none;}#mermaid-svg-44 .eventWrapper{filter:brightness(120%);}#mermaid-svg-44 :root{--mermaid-font-family:"trebuchet ms",verdana,arial,sans-serif;}</style><g></g><g></g><defs><marker orient="auto" markerHeight="4" markerWidth="6" refY="2" refX="5" id="arrowhead"><path d="M 0,0 V 4 L6,2 Z"></path></marker></defs><g transform="translate(100, 50)"><g class="timeline-node section--1"><g><path d="M0 62.3078125 v-57.3078125 q0,-5 5,-5 h580 q5,0 5,5 v62.3078125 H0 Z" class="node-bkg node-undefined" id="node-undefined"></path><line y2="67.3078125" x2="590" y1="67.3078125" x1="0" class="node-line--1"></line></g><g transform="translate(295, 10)"><text text-anchor="middle" dominant-baseline="middle" alignment-baseline="middle" dy="1em"><tspan dy="1em" x="0">早期阶段</tspan></text></g></g></g><g transform="translate(100, 167.3078125)" class="taskWrapper"><g class="timeline-node section--1"><g><path d="M0 62.3078125 v-57.3078125 q0,-5 5,-5 h180 q5,0 5,5 v62.3078125 H0 Z" class="node-bkg node-undefined" id="node-undefined"></path><line y2="67.3078125" x2="190" y1="67.3078125" x1="0" class="node-line--1"></line></g><g transform="translate(95, 10)"><text text-anchor="middle" dominant-baseline="middle" alignment-baseline="middle" dy="1em"><tspan dy="1em" x="0">2009</tspan></text></g></g></g><g class="lineWrapper"><line stroke-dasharray="5,5" marker-end="url(#arrowhead)" stroke="black" stroke-width="2" y2="563.846875" x2="195" y1="234.61562500000002" x1="195"></line></g><g transform="translate(100, 367.3078125)" class="eventWrapper"><g class="timeline-node section--1"><g><path d="M0 45 v-40 q0,-5 5,-5 h180 q5,0 5,5 v45 H0 Z" class="node-bkg node-undefined" id="node-undefined"></path><line y2="50" x2="190" y1="50" x1="0" class="node-line--1"></line></g><g transform="translate(95, 10)"><text text-anchor="middle" dominant-baseline="middle" alignment-baseline="middle" dy="1em"><tspan dy="1em" x="0">比特币主网上线</tspan></text></g></g></g><g transform="translate(100, 427.3078125)" class="eventWrapper"><g class="timeline-node section--1"><g><path d="M0 45 v-40 q0,-5 5,-5 h180 q5,0 5,5 v45 H0 Z" class="node-bkg node-undefined" id="node-undefined"></path><line y2="50" x2="190" y1="50" x1="0" class="node-line--1"></line></g><g transform="translate(95, 10)"><text text-anchor="middle" dominant-baseline="middle" alignment-baseline="middle" dy="1em"><tspan dy="1em" x="0">中本聪发布白皮书</tspan></text></g></g></g><g transform="translate(300, 167.3078125)" class="taskWrapper"><g class="timeline-node section--1"><g><path d="M0 62.3078125 v-57.3078125 q0,-5 5,-5 h180 q5,0 5,5 v62.3078125 H0 Z" class="node-bkg node-undefined" id="node-undefined"></path><line y2="67.3078125" x2="190" y1="67.3078125" x1="0" class="node-line--1"></line></g><g transform="translate(95, 10)"><text text-anchor="middle" dominant-baseline="middle" alignment-baseline="middle" dy="1em"><tspan dy="1em" x="0">2013-2015</tspan></text></g></g></g><g class="lineWrapper"><line stroke-dasharray="5,5" marker-end="url(#arrowhead)" stroke="black" stroke-width="2" y2="563.846875" x2="395" y1="234.61562500000002" x1="395"></line></g><g transform="translate(300, 367.3078125)" class="eventWrapper"><g class="timeline-node section--1"><g><path d="M0 45 v-40 q0,-5 5,-5 h180 q5,0 5,5 v45 H0 Z" class="node-bkg node-undefined" id="node-undefined"></path><line y2="50" x2="190" y1="50" x1="0" class="node-line--1"></line></g><g transform="translate(95, 10)"><text text-anchor="middle" dominant-baseline="middle" alignment-baseline="middle" dy="1em"><tspan dy="1em" x="0">中国初步监管</tspan></text></g></g></g><g transform="translate(300, 427.3078125)" class="eventWrapper"><g class="timeline-node section--1"><g><path d="M0 45 v-40 q0,-5 5,-5 h180 q5,0 5,5 v45 H0 Z" class="node-bkg node-undefined" id="node-undefined"></path><line y2="50" x2="190" y1="50" x1="0" class="node-line--1"></line></g><g transform="translate(95, 10)"><text text-anchor="middle" dominant-baseline="middle" alignment-baseline="middle" dy="1em"><tspan dy="1em" x="0">美国早期探索</tspan></text></g></g></g><g transform="translate(500, 167.3078125)" class="taskWrapper"><g class="timeline-node section--1"><g><path d="M0 62.3078125 v-57.3078125 q0,-5 5,-5 h180 q5,0 5,5 v62.3078125 H0 Z" class="node-bkg node-undefined" id="node-undefined"></path><line y2="67.3078125" x2="190" y1="67.3078125" x1="0" class="node-line--1"></line></g><g transform="translate(95, 10)"><text text-anchor="middle" dominant-baseline="middle" alignment-baseline="middle" dy="1em"><tspan dy="1em" x="0">2015</tspan></text></g></g></g><g class="lineWrapper"><line stroke-dasharray="5,5" marker-end="url(#arrowhead)" stroke="black" stroke-width="2" y2="563.846875" x2="595" y1="234.61562500000002" x1="595"></line></g><g transform="translate(500, 367.3078125)" class="eventWrapper"><g class="timeline-node section--1"><g><path d="M0 45 v-40 q0,-5 5,-5 h180 q5,0 5,5 v45 H0 Z" class="node-bkg node-undefined" id="node-undefined"></path><line y2="50" x2="190" y1="50" x1="0" class="node-line--1"></line></g><g transform="translate(95, 10)"><text text-anchor="middle" dominant-baseline="middle" alignment-baseline="middle" dy="1em"><tspan dy="1em" x="0">以太坊推出智能合约</tspan></text></g></g></g><g transform="translate(700, 50)"><g class="timeline-node section-0"><g><path d="M0 62.3078125 v-57.3078125 q0,-5 5,-5 h380 q5,0 5,5 v62.3078125 H0 Z" class="node-bkg node-undefined" id="node-undefined"></path><line y2="67.3078125" x2="390" y1="67.3078125" x1="0" class="node-line-0"></line></g><g transform="translate(195, 10)"><text text-anchor="middle" dominant-baseline="middle" alignment-baseline="middle" dy="1em"><tspan dy="1em" x="0">技术扩展</tspan></text></g></g></g><g transform="translate(700, 167.3078125)" class="taskWrapper"><g class="timeline-node section-0"><g><path d="M0 62.3078125 v-57.3078125 q0,-5 5,-5 h180 q5,0 5,5 v62.3078125 H0 Z" class="node-bkg node-undefined" id="node-undefined"></path><line y2="67.3078125" x2="190" y1="67.3078125" x1="0" class="node-line-0"></line></g><g transform="translate(95, 10)"><text text-anchor="middle" dominant-baseline="middle" alignment-baseline="middle" dy="1em"><tspan dy="1em" x="0">2016-2018</tspan></text></g></g></g><g class="lineWrapper"><line stroke-dasharray="5,5" marker-end="url(#arrowhead)" stroke="black" stroke-width="2" y2="563.846875" x2="795" y1="234.61562500000002" x1="795"></line></g><g transform="translate(700, 367.3078125)" class="eventWrapper"><g class="timeline-node section-0"><g><path d="M0 45 v-40 q0,-5 5,-5 h180 q5,0 5,5 v45 H0 Z" class="node-bkg node-undefined" id="node-undefined"></path><line y2="50" x2="190" y1="50" x1="0" class="node-line-0"></line></g><g transform="translate(95, 10)"><text text-anchor="middle" dominant-baseline="middle" alignment-baseline="middle" dy="1em"><tspan dy="1em" x="0">联盟链与隐私链兴起</tspan></text></g></g></g><g transform="translate(700, 427.3078125)" class="eventWrapper"><g class="timeline-node section-0"><g><path d="M0 45 v-40 q0,-5 5,-5 h180 q5,0 5,5 v45 H0 Z" class="node-bkg node-undefined" id="node-undefined"></path><line y2="50" x2="190" y1="50" x1="0" class="node-line-0"></line></g><g transform="translate(95, 10)"><text text-anchor="middle" dominant-baseline="middle" alignment-baseline="middle" dy="1em"><tspan dy="1em" x="0">中国清理ICO与挖矿</tspan></text></g></g></g><g transform="translate(700, 487.3078125)" class="eventWrapper"><g class="timeline-node section-0"><g><path d="M0 45 v-40 q0,-5 5,-5 h180 q5,0 5,5 v45 H0 Z" class="node-bkg node-undefined" id="node-undefined"></path><line y2="50" x2="190" y1="50" x1="0" class="node-line-0"></line></g><g transform="translate(95, 10)"><text text-anchor="middle" dominant-baseline="middle" alignment-baseline="middle" dy="1em"><tspan dy="1em" x="0">美国执法监管为主</tspan></text></g></g></g><g transform="translate(900, 167.3078125)" class="taskWrapper"><g class="timeline-node section-0"><g><path d="M0 62.3078125 v-57.3078125 q0,-5 5,-5 h180 q5,0 5,5 v62.3078125 H0 Z" class="node-bkg node-undefined" id="node-undefined"></path><line y2="67.3078125" x2="190" y1="67.3078125" x1="0" class="node-line-0"></line></g><g transform="translate(95, 10)"><text text-anchor="middle" dominant-baseline="middle" alignment-baseline="middle" dy="1em"><tspan dy="1em" x="0">2017-2019</tspan></text></g></g></g><g class="lineWrapper"><line stroke-dasharray="5,5" marker-end="url(#arrowhead)" stroke="black" stroke-width="2" y2="563.846875" x2="995" y1="234.61562500000002" x1="995"></line></g><g transform="translate(900, 367.3078125)" class="eventWrapper"><g class="timeline-node section-0"><g><path d="M0 45 v-40 q0,-5 5,-5 h180 q5,0 5,5 v45 H0 Z" class="node-bkg node-undefined" id="node-undefined"></path><line y2="50" x2="190" y1="50" x1="0" class="node-line-0"></line></g><g transform="translate(95, 10)"><text text-anchor="middle" dominant-baseline="middle" alignment-baseline="middle" dy="1em"><tspan dy="1em" x="0">ICO热潮与泡沫</tspan></text></g></g></g><g transform="translate(1100, 50)"><g class="timeline-node section-1"><g><path d="M0 62.3078125 v-57.3078125 q0,-5 5,-5 h380 q5,0 5,5 v62.3078125 H0 Z" class="node-bkg node-undefined" id="node-undefined"></path><line y2="67.3078125" x2="390" y1="67.3078125" x1="0" class="node-line-1"></line></g><g transform="translate(195, 10)"><text text-anchor="middle" dominant-baseline="middle" alignment-baseline="middle" dy="1em"><tspan dy="1em" x="0">主流化与合规化</tspan></text></g></g></g><g transform="translate(1100, 167.3078125)" class="taskWrapper"><g class="timeline-node section-1"><g><path d="M0 62.3078125 v-57.3078125 q0,-5 5,-5 h180 q5,0 5,5 v62.3078125 H0 Z" class="node-bkg node-undefined" id="node-undefined"></path><line y2="67.3078125" x2="190" y1="67.3078125" x1="0" class="node-line-1"></line></g><g transform="translate(95, 10)"><text text-anchor="middle" dominant-baseline="middle" alignment-baseline="middle" dy="1em"><tspan dy="1em" x="0">2021-2023</tspan></text></g></g></g><g class="lineWrapper"><line stroke-dasharray="5,5" marker-end="url(#arrowhead)" stroke="black" stroke-width="2" y2="563.846875" x2="1195" y1="234.61562500000002" x1="1195"></line></g><g transform="translate(1100, 367.3078125)" class="eventWrapper"><g class="timeline-node section-1"><g><path d="M0 45 v-40 q0,-5 5,-5 h180 q5,0 5,5 v45 H0 Z" class="node-bkg node-undefined" id="node-undefined"></path><line y2="50" x2="190" y1="50" x1="0" class="node-line-1"></line></g><g transform="translate(95, 10)"><text text-anchor="middle" dominant-baseline="middle" alignment-baseline="middle" dy="1em"><tspan dy="1em" x="0">中国明确支持技术</tspan></text></g></g></g><g transform="translate(1100, 427.3078125)" class="eventWrapper"><g class="timeline-node section-1"><g><path d="M0 45 v-40 q0,-5 5,-5 h180 q5,0 5,5 v45 H0 Z" class="node-bkg node-undefined" id="node-undefined"></path><line y2="50" x2="190" y1="50" x1="0" class="node-line-1"></line></g><g transform="translate(95, 10)"><text text-anchor="middle" dominant-baseline="middle" alignment-baseline="middle" dy="1em"><tspan dy="1em" x="0">NFT与DeFi爆发</tspan></text></g></g></g><g transform="translate(1300, 167.3078125)" class="taskWrapper"><g class="timeline-node section-1"><g><path d="M0 62.3078125 v-57.3078125 q0,-5 5,-5 h180 q5,0 5,5 v62.3078125 H0 Z" class="node-bkg node-undefined" id="node-undefined"></path><line y2="67.3078125" x2="190" y1="67.3078125" x1="0" class="node-line-1"></line></g><g transform="translate(95, 10)"><text text-anchor="middle" dominant-baseline="middle" alignment-baseline="middle" dy="1em"><tspan dy="1em" x="0">2023</tspan></text></g></g></g><g class="lineWrapper"><line stroke-dasharray="5,5" marker-end="url(#arrowhead)" stroke="black" stroke-width="2" y2="563.846875" x2="1395" y1="234.61562500000002" x1="1395"></line></g><g transform="translate(1300, 367.3078125)" class="eventWrapper"><g class="timeline-node section-1"><g><path d="M0 45 v-40 q0,-5 5,-5 h180 q5,0 5,5 v45 H0 Z" class="node-bkg node-undefined" id="node-undefined"></path><line y2="50" x2="190" y1="50" x1="0" class="node-line-1"></line></g><g transform="translate(95, 10)"><text text-anchor="middle" dominant-baseline="middle" alignment-baseline="middle" dy="1em"><tspan dy="1em" x="0">美国转向框架监管</tspan></text></g></g></g><g transform="translate(1300, 427.3078125)" class="eventWrapper"><g class="timeline-node section-1"><g><path d="M0 45 v-40 q0,-5 5,-5 h180 q5,0 5,5 v45 H0 Z" class="node-bkg node-undefined" id="node-undefined"></path><line y2="50" x2="190" y1="50" x1="0" class="node-line-1"></line></g><g transform="translate(95, 10)"><text text-anchor="middle" dominant-baseline="middle" alignment-baseline="middle" dy="1em"><tspan dy="1em" x="0">币安支付巨额罚款</tspan></text></g></g></g><g transform="translate(1500, 50)"><g class="timeline-node section-2"><g><path d="M0 62.3078125 v-57.3078125 q0,-5 5,-5 h180 q5,0 5,5 v62.3078125 H0 Z" class="node-bkg node-undefined" id="node-undefined"></path><line y2="67.3078125" x2="190" y1="67.3078125" x1="0" class="node-line-2"></line></g><g transform="translate(95, 10)"><text text-anchor="middle" dominant-baseline="middle" alignment-baseline="middle" dy="1em"><tspan dy="1em" x="0">成熟整合</tspan></text></g></g></g><g transform="translate(1500, 167.3078125)" class="taskWrapper"><g class="timeline-node section-2"><g><path d="M0 62.3078125 v-57.3078125 q0,-5 5,-5 h180 q5,0 5,5 v62.3078125 H0 Z" class="node-bkg node-undefined" id="node-undefined"></path><line y2="67.3078125" x2="190" y1="67.3078125" x1="0" class="node-line-2"></line></g><g transform="translate(95, 10)"><text text-anchor="middle" dominant-baseline="middle" alignment-baseline="middle" dy="1em"><tspan dy="1em" x="0">2024-2025</tspan></text></g></g></g><g class="lineWrapper"><line stroke-dasharray="5,5" marker-end="url(#arrowhead)" stroke="black" stroke-width="2" y2="563.846875" x2="1595" y1="234.61562500000002" x1="1595"></line></g><g transform="translate(1500, 367.3078125)" class="eventWrapper"><g class="timeline-node section-2"><g><path d="M0 45 v-40 q0,-5 5,-5 h180 q5,0 5,5 v45 H0 Z" class="node-bkg node-undefined" id="node-undefined"></path><line y2="50" x2="190" y1="50" x1="0" class="node-line-2"></line></g><g transform="translate(95, 10)"><text text-anchor="middle" dominant-baseline="middle" alignment-baseline="middle" dy="1em"><tspan dy="1em" x="0"></tspan><tspan dy="1.1em" x="0">中国完善标准与司法应用</tspan></text></g></g></g><g transform="translate(1500, 427.3078125)" class="eventWrapper"><g class="timeline-node section-2"><g><path d="M0 45 v-40 q0,-5 5,-5 h180 q5,0 5,5 v45 H0 Z" class="node-bkg node-undefined" id="node-undefined"></path><line y2="50" x2="190" y1="50" x1="0" class="node-line-2"></line></g><g transform="translate(95, 10)"><text text-anchor="middle" dominant-baseline="middle" alignment-baseline="middle" dy="1em"><tspan dy="1em" x="0">美国通过关键法案</tspan></text></g></g></g><g transform="translate(1500, 487.3078125)" class="eventWrapper"><g class="timeline-node section-2"><g><path d="M0 45 v-40 q0,-5 5,-5 h180 q5,0 5,5 v45 H0 Z" class="node-bkg node-undefined" id="node-undefined"></path><line y2="50" x2="190" y1="50" x1="0" class="node-line-2"></line></g><g transform="translate(95, 10)"><text text-anchor="middle" dominant-baseline="middle" alignment-baseline="middle" dy="1em"><tspan dy="1em" x="0">性能与互操作性突破</tspan></text></g></g></g><text y="20" font-weight="bold" font-size="4ex" x="745">区块链发展历程 (2009-2025)</text><g class="lineWrapper"><line marker-end="url(#arrowhead)" stroke="black" stroke-width="4" y2="284.615625" x2="1740" y1="284.615625" x1="50"></line></g></svg>